<svg id="Layer_1" data-name="Layer 1" xmlns="http://www.w3.org/2000/svg" viewBox="0 0 183.07 199.05"><defs><style>.cls-1{fill:#f2ba42;stroke:#050000;}.cls-1,.cls-2,.cls-3{stroke-miterlimit:10;}.cls-2{fill:#e86158;}.cls-2,.cls-3{stroke:#000;}.cls-3{fill:#fae2be;}.cls-4{font-size:36px;font-family:ChalkboardSE-Regular, Chalkboard SE;}.cls-5{letter-spacing:-0.02em;}.cls-6{letter-spacing:-0.04em;}.cls-7{letter-spacing:-0.03em;}.cls-8{letter-spacing:0em;}.cls-9{letter-spacing:0.02em;}</style></defs><title>logo</title><polygon class="cls-1" points="48.23 30.7 58.82 28.71 65.04 50.64 52.59 50.64 48.23 30.7"/><polygon class="cls-1" points="68.47 9.84 74.7 50.64 86.84 50.64 79.06 8.28 68.47 9.84"/><rect class="cls-1" x="86.84" y="0.5" width="11.21" height="50.14"/><polygon class="cls-1" points="103.96 8.28 98.05 50.64 109.57 50.64 115.17 10.15 103.96 8.28"/><polygon class="cls-1" points="117.04 50.64 124.82 28.71 133.85 32.88 128.56 50.64 117.04 50.64"/><path class="cls-2" d="M106.59,228.49s42.21-3.07,75.14,0c0,0,9.57,1.95,7.6,11.16l-10.7,55.81-13.22-13.67-51.78.28s-5.63-.35-9.57-10.22l-5.63-34.71S97.58,230.44,106.59,228.49Z" transform="translate(-52.47 -180.22)"/><ellipse cx="71.15" cy="73.52" rx="4.92" ry="4.88"/><ellipse cx="91.73" cy="73.52" rx="4.92" ry="4.88"/><ellipse cx="112.24" cy="73.52" rx="4.92" ry="4.88"/><path class="cls-3" d="M104.69,274.93l5.58,32.37s.84,5.58,8.38,6.7h50.79s5.3-1.68,7-6.7l2.24-11.16L164.41,281.9l-49.67.56S110,284.69,104.69,274.93Z" transform="translate(-52.47 -180.22)"/><text class="cls-4" transform="translate(27.15 174.2)"><tspan class="cls-5">K</tspan><tspan class="cls-6" x="20.21" y="0">e</tspan><tspan class="cls-7" x="37.55" y="0">t</tspan><tspan class="cls-8" x="52.83" y="0">c</tspan><tspan x="70.61" y="0">h</tspan><tspan class="cls-9" x="90.18" y="0">u</tspan><tspan x="109.75" y="0">p</tspan></text></svg>