<?xml version="1.0" encoding="utf-8"?>
<!-- Generator: Adobe Illustrator 26.0.3, SVG Export Plug-In . SVG Version: 6.00 Build 0)  -->
<svg version="1.1" id="Layer_1" xmlns="http://www.w3.org/2000/svg" xmlns:xlink="http://www.w3.org/1999/xlink" x="0px" y="0px"
	 viewBox="0 0 288 560" style="enable-background:new 0 0 288 560;" xml:space="preserve">
<style type="text/css">
	.st0{fill:#F2BA42;stroke:#050000;stroke-miterlimit:10;}
	.st1{fill:#E86158;stroke:#000000;stroke-miterlimit:10;}
	.st2{fill:#FAE2BE;stroke:#000000;stroke-miterlimit:10;}
</style>
<g>
	<g>
		<g>
			<polygon class="st0" points="100.7,210.92 111.28,208.94 117.51,230.86 105.06,230.86 			"/>
			<polygon class="st0" points="120.93,190.06 127.16,230.86 139.3,230.86 131.52,188.51 			"/>
			<rect x="139.3" y="180.72" class="st0" width="11.21" height="50.14"/>
			<polygon class="st0" points="156.43,188.51 150.51,230.86 162.03,230.86 167.64,190.38 			"/>
			<polygon class="st0" points="169.5,230.86 177.29,208.94 186.32,213.1 181.02,230.86 			"/>
		</g>
		<g>
			<g>
				<path class="st1" d="M106.59,228.49c0,0,42.21-3.07,75.14,0c0,0,9.57,1.95,7.6,11.16l-10.69,55.81l-13.23-13.67l-51.78,0.28
					c0,0-5.63-0.35-9.57-10.22l-5.63-34.71C98.43,237.14,97.58,230.44,106.59,228.49z"/>
				<ellipse cx="123.62" cy="253.74" rx="4.92" ry="4.88"/>
				<ellipse cx="144.19" cy="253.74" rx="4.92" ry="4.88"/>
				<ellipse cx="164.71" cy="253.74" rx="4.92" ry="4.88"/>
			</g>
			<path class="st2" d="M104.69,274.93l5.58,32.37c0,0,0.84,5.58,8.37,6.7h50.79c0,0,5.3-1.67,6.98-6.7l2.23-11.16l-14.23-14.23
				l-49.67,0.56C114.74,282.46,110,284.69,104.69,274.93z"/>
		</g>
	</g>
	<g>
		<path d="M85.07,352.71c-0.03,0.66-0.25,1.15-0.66,1.47c-0.41,0.32-0.84,0.48-1.29,0.48c-0.48,0-0.92-0.15-1.33-0.46
			c-0.41-0.3-0.66-0.76-0.74-1.37c0-1.7,0.01-3.39,0.02-5.07c0.01-1.68,0.02-3.39,0.02-5.11c0-1.7-0.01-3.42-0.02-5.17
			c-0.01-1.75-0.02-3.54-0.02-5.37c0.13-0.56,0.38-0.97,0.74-1.25s0.78-0.42,1.25-0.42c0.4,0,0.79,0.13,1.17,0.4
			c0.38,0.27,0.64,0.66,0.78,1.19v4.3c0,0.72-0.01,1.37-0.02,1.95c-0.01,0.58-0.02,1.26-0.02,2.03c1.43-0.72,2.72-1.66,3.86-2.84
			c1.14-1.18,2.17-2.34,3.1-3.48c0.29-0.42,0.61-0.86,0.96-1.31c0.34-0.45,0.73-0.9,1.15-1.35c0.53-0.45,1.09-0.68,1.67-0.68
			c0.53,0,0.97,0.16,1.33,0.48s0.54,0.72,0.54,1.19c0,0.19-0.07,0.48-0.2,0.88c-0.42,0.5-0.83,0.98-1.23,1.43s-0.76,0.9-1.07,1.35
			c-0.93,1.11-1.8,2.15-2.62,3.1c-0.82,0.95-1.78,1.83-2.86,2.62l1.99,2.15c1.17,1.25,2.31,2.46,3.42,3.64
			c1.11,1.18,2.25,2.41,3.42,3.68c0.48,0.61,0.72,1.13,0.72,1.55c0,0.48-0.17,0.87-0.52,1.17c-0.35,0.31-0.78,0.46-1.31,0.46
			c-0.29,0-0.58-0.05-0.88-0.14c-0.29-0.09-0.56-0.27-0.8-0.54c-0.13-0.16-0.36-0.41-0.68-0.76c-0.32-0.34-0.69-0.74-1.11-1.19
			c-0.42-0.45-0.9-0.95-1.41-1.49s-1.04-1.09-1.57-1.65c-0.53-0.56-1.04-1.1-1.53-1.63c-0.49-0.53-0.95-1.01-1.37-1.45
			c-0.42-0.44-0.78-0.82-1.07-1.13c-0.29-0.32-0.5-0.56-0.64-0.72c-0.21,0.08-0.41,0.15-0.6,0.2c-0.19,0.05-0.42,0.13-0.72,0.24
			c0,0.61,0.01,1.29,0.02,2.03c0.01,0.74,0.03,1.5,0.04,2.27c0.01,0.77,0.03,1.53,0.04,2.29C85.02,351.42,85.04,352.1,85.07,352.71z
			"/>
		<path d="M115.14,349.53c0.42-0.16,0.82-0.23,1.17-0.2s0.66,0.12,0.92,0.28c0.25,0.16,0.45,0.37,0.6,0.62
			c0.15,0.25,0.22,0.52,0.22,0.82s-0.09,0.58-0.28,0.85c-0.19,0.28-0.48,0.54-0.88,0.78c-1.11,0.66-2.31,1.23-3.6,1.69
			c-1.29,0.46-2.58,0.7-3.88,0.7c-0.77,0-1.55-0.11-2.35-0.34c-0.8-0.23-1.54-0.58-2.23-1.05c-1.11-0.82-1.98-1.9-2.61-3.24
			c-0.62-1.34-0.94-2.71-0.94-4.12c0-1.38,0.27-2.71,0.82-3.98c0.54-1.27,1.41-2.31,2.61-3.1c0.96-0.66,1.99-1.19,3.1-1.59
			c1.11-0.4,2.27-0.6,3.46-0.6c0.64,0,1.26,0.07,1.87,0.2c0.58,0.13,1.13,0.37,1.63,0.7c0.5,0.33,0.94,0.73,1.31,1.19
			c0.37,0.46,0.66,0.97,0.88,1.53s0.32,1.11,0.32,1.67c0,0.37-0.04,0.73-0.12,1.07s-0.23,0.68-0.44,0.99
			c-0.4,0.64-0.94,1.19-1.63,1.65s-1.45,0.87-2.27,1.21c-0.82,0.34-1.67,0.64-2.55,0.88s-1.7,0.45-2.47,0.64
			c-0.82,0.21-1.35,0.34-1.57,0.4c-0.23,0.05-0.36,0.08-0.42,0.08c0.37,0.77,0.9,1.38,1.59,1.83c0.69,0.45,1.54,0.64,2.55,0.56
			c0.85-0.05,1.73-0.3,2.65-0.74S114.37,350.01,115.14,349.53z M107.82,341.53c-0.88,0.45-1.53,1.05-1.95,1.81
			c-0.42,0.76-0.66,1.6-0.72,2.53c0.08-0.03,0.22-0.07,0.42-0.12c0.2-0.05,0.5-0.14,0.9-0.26s0.97-0.28,1.71-0.5
			c0.26-0.08,0.66-0.19,1.19-0.34c0.53-0.15,1.07-0.32,1.61-0.52c0.54-0.2,1.05-0.43,1.51-0.7c0.46-0.26,0.78-0.56,0.94-0.88
			c0.05-0.77-0.12-1.3-0.52-1.59c-0.4-0.29-0.88-0.44-1.43-0.44c-0.61,0-1.26,0.11-1.95,0.34
			C108.84,341.1,108.27,341.32,107.82,341.53z"/>
		<path d="M121.74,340.66c-0.66-0.11-1.16-0.32-1.49-0.64c-0.33-0.32-0.5-0.69-0.5-1.11c0-0.42,0.18-0.82,0.54-1.19
			s0.9-0.56,1.61-0.56h1.83v-6.09c0.13-0.56,0.38-0.97,0.74-1.25s0.76-0.42,1.21-0.42c0.42,0,0.82,0.13,1.19,0.38
			c0.37,0.25,0.62,0.64,0.76,1.17v6.21h3.5c0.58,0.16,1.01,0.4,1.29,0.72c0.28,0.32,0.42,0.66,0.42,1.03c0,0.85-0.61,1.43-1.83,1.75
			h-3.38v7.32c0,0.82,0.01,1.64,0.02,2.47c0.01,0.82,0.02,1.64,0.02,2.47c0,0.66-0.21,1.15-0.64,1.47
			c-0.42,0.32-0.86,0.48-1.31,0.48c-0.45,0-0.87-0.15-1.25-0.44c-0.38-0.29-0.62-0.74-0.7-1.35c0-1.01-0.01-2.05-0.02-3.12
			c-0.01-1.07-0.02-2.14-0.02-3.2v-6.09H121.74z"/>
		<path d="M144.62,349.93c0.21-0.21,0.45-0.36,0.72-0.44c0.26-0.08,0.53-0.12,0.79-0.12c0.53,0,0.97,0.17,1.31,0.5
			c0.34,0.33,0.52,0.72,0.52,1.17s-0.2,0.92-0.6,1.39c-0.74,0.82-1.6,1.43-2.59,1.83s-2,0.6-3.06,0.6c-0.69,0-1.37-0.09-2.05-0.28
			c-0.68-0.19-1.31-0.47-1.9-0.85c-0.59-0.38-1.12-0.85-1.6-1.41c-0.47-0.56-0.84-1.2-1.1-1.95v0.04c-0.66-1.51-0.92-3.04-0.79-4.6
			c0.08-1.11,0.32-2.23,0.73-3.35c0.41-1.12,0.96-2.15,1.67-3.08c0.71-0.93,1.56-1.68,2.55-2.26s2.09-0.87,3.28-0.87
			c0.37,0,0.73,0.02,1.07,0.06c0.34,0.04,0.7,0.12,1.07,0.26c0.74,0.26,1.41,0.56,2.01,0.9c0.6,0.34,1.2,0.81,1.81,1.42
			c0.26,0.45,0.4,0.83,0.4,1.14c0,0.35-0.08,0.65-0.24,0.92c-0.16,0.27-0.38,0.46-0.66,0.6c-0.28,0.13-0.61,0.19-1,0.18
			s-0.79-0.13-1.21-0.34c-0.56-0.58-1.09-1-1.61-1.25c-0.52-0.25-1.01-0.38-1.49-0.38c-0.64,0-1.23,0.19-1.79,0.58
			c-0.56,0.38-1.04,0.89-1.43,1.53s-0.72,1.35-0.95,2.15c-0.24,0.79-0.36,1.6-0.36,2.43c0,0.45,0.03,0.9,0.1,1.35
			c0.07,0.45,0.19,0.88,0.38,1.27c0.34,0.8,0.79,1.38,1.35,1.75c0.56,0.37,1.14,0.56,1.75,0.56c0.45,0,0.93-0.12,1.43-0.36
			c0.5-0.24,0.98-0.6,1.43-1.07H144.62z"/>
		<path d="M156.39,353.07c-0.05,0.64-0.27,1.11-0.64,1.43c-0.37,0.32-0.81,0.48-1.31,0.48c-0.45,0-0.88-0.15-1.27-0.44
			c-0.4-0.29-0.64-0.73-0.72-1.31v-21.84c0.13-0.53,0.37-0.93,0.72-1.21s0.74-0.42,1.19-0.42s0.86,0.13,1.21,0.38
			c0.36,0.25,0.63,0.63,0.82,1.13l-0.01,8.55c1.3-0.9,2.47-1.49,3.51-1.75c1.04-0.26,2.12-0.21,3.23,0.16
			c0.82,0.24,1.52,0.63,2.1,1.17c0.58,0.54,1.06,1.17,1.45,1.87c0.38,0.7,0.67,1.45,0.87,2.25s0.31,1.57,0.34,2.31
			c0,1.25,0,2.27,0,3.06s0,1.47,0,2.01c0,0.54,0.01,0.99,0.02,1.33c0.01,0.34,0.02,0.68,0.02,0.99c-0.05,0.64-0.26,1.11-0.61,1.43
			c-0.35,0.32-0.78,0.48-1.28,0.48c-0.45,0-0.87-0.15-1.26-0.44c-0.39-0.29-0.63-0.74-0.71-1.35c0-1.25,0-2.47,0-3.68
			c0-1.21-0.01-2.45-0.04-3.72c-0.05-0.85-0.23-1.67-0.54-2.47c-0.31-0.79-0.8-1.42-1.49-1.87c-0.53-0.11-1.03-0.08-1.49,0.08
			c-0.46,0.16-0.92,0.42-1.37,0.78c-0.45,0.36-0.9,0.8-1.35,1.33c-0.45,0.53-0.91,1.09-1.39,1.67V353.07z"/>
		<path d="M187.62,351.48c0.34,0.48,0.52,0.92,0.52,1.31c0,0.48-0.18,0.87-0.54,1.17c-0.36,0.3-0.79,0.46-1.29,0.46
			c-0.6,0-1.12-0.22-1.56-0.68c-0.43-0.45-0.79-0.98-1.08-1.59c-0.66,0.61-1.44,1.14-2.34,1.59c-0.9,0.45-1.81,0.68-2.74,0.68
			c-0.72,0-1.42-0.13-2.13-0.38s-1.35-0.6-1.95-1.03s-1.11-0.95-1.55-1.53s-0.77-1.21-1.01-1.87c-0.21-0.69-0.35-1.45-0.42-2.27
			c-0.07-0.82-0.1-1.68-0.1-2.58c0-0.58,0-1.15,0-1.71s0.01-1.1,0.04-1.63c0.03-0.45,0.05-0.89,0.06-1.31
			c0.01-0.42,0.02-0.82,0.02-1.19c0.13-0.58,0.37-1.01,0.73-1.27c0.35-0.26,0.77-0.4,1.24-0.4c0.39,0,0.78,0.13,1.16,0.38
			c0.38,0.25,0.64,0.64,0.77,1.17c0,0.61,0,1.21,0,1.79s-0.01,1.17-0.04,1.75c-0.03,0.61-0.05,1.21-0.06,1.79
			c-0.01,0.58-0.02,1.21-0.02,1.87c0,1.43,0.28,2.6,0.84,3.5c0.56,0.9,1.32,1.35,2.28,1.35c0.77,0,1.49-0.3,2.16-0.9
			c0.67-0.6,1.31-1.28,1.92-2.05c-0.16-1.27-0.24-2.57-0.24-3.9c0-0.77,0.01-1.55,0.02-2.35c0.01-0.79,0.09-1.52,0.24-2.17
			c0.14-0.65,0.37-1.18,0.67-1.59s0.75-0.62,1.36-0.62c0.47,0,0.9,0.16,1.28,0.48c0.38,0.32,0.57,0.79,0.57,1.43
			c0,0.56-0.04,1.19-0.12,1.91c-0.05,0.45-0.09,0.93-0.12,1.43s-0.04,1.02-0.04,1.55c0,0.72,0.02,1.44,0.06,2.17
			c0.04,0.73,0.12,1.43,0.24,2.09s0.27,1.27,0.46,1.81C187.09,350.69,187.33,351.13,187.62,351.48z"/>
		<path d="M191.52,338.43c0.13-0.56,0.38-0.97,0.74-1.25c0.36-0.28,0.76-0.42,1.21-0.42c0.4,0,0.78,0.12,1.15,0.36
			c0.37,0.24,0.64,0.58,0.8,1.03c0.58-0.37,1.22-0.65,1.92-0.83s1.38-0.28,2.08-0.28c1.06,0,2.06,0.23,2.97,0.68s1.72,1.06,2.4,1.83
			s1.21,1.67,1.6,2.7c0.38,1.04,0.58,2.12,0.58,3.26c0,1.27-0.21,2.44-0.62,3.5c-0.41,1.06-1.03,1.98-1.86,2.75
			c-0.83,0.77-1.84,1.37-3.03,1.81s-2.59,0.66-4.19,0.66c-0.32,0-0.63,0-0.92,0s-0.59-0.03-0.88-0.08v8.04
			c-0.03,0.66-0.25,1.15-0.66,1.47s-0.86,0.48-1.33,0.48c-0.45,0-0.87-0.15-1.25-0.44c-0.38-0.29-0.62-0.74-0.7-1.35V338.43z
			 M195.45,343.29v7.32c0.61,0.13,1.21,0.2,1.79,0.2c1.67,0,3.06-0.45,4.18-1.35c1.11-0.9,1.67-2.15,1.67-3.74
			c0-0.61-0.09-1.23-0.26-1.85c-0.17-0.62-0.42-1.19-0.74-1.69s-0.7-0.92-1.13-1.23s-0.91-0.48-1.41-0.48
			c-0.82,0-1.55,0.27-2.19,0.82c-0.64,0.54-1.18,1.11-1.63,1.69L195.45,343.29z"/>
	</g>
</g>
</svg>
