<svg id="Layer_1" data-name="Layer 1" xmlns="http://www.w3.org/2000/svg" viewBox="0 0 191.93 191.93"><defs><style>.cls-1{fill:#fff;stroke:#000;stroke-miterlimit:10;}</style></defs><circle class="cls-1" cx="95.97" cy="95.97" r="95.47"/><path d="M75.33,181.91l1.48,29.65c.1,1.92,3.1,1.93,3,0l-1.48-29.65c-.1-1.93-3.1-1.94-3,0Z" transform="translate(-48.95 -136.9)"/><path d="M76.75,183.75c2.79,4.78,7.19,8.18,11,12a75.09,75.09,0,0,1,10.78,13.64,1.52,1.52,0,0,0,2.74-.36,229.83,229.83,0,0,0,10.47-31.74c.47-1.87-2.43-2.67-2.9-.8a228.45,228.45,0,0,1-10.46,31.74l2.74-.36A79,79,0,0,0,90.55,194.3c-3.83-3.91-8.42-7.27-11.21-12.07a1.5,1.5,0,0,0-2.59,1.52Z" transform="translate(-48.95 -136.9)"/><path d="M122.82,187.47c.06,3.68.2,7.65,2.21,10.87s5.6,4.87,9.09,6.15c2.12.78,4.25,1.54,6.37,2.31a43.94,43.94,0,0,0,6.3,2,11.25,11.25,0,0,0,10.42-3.11c5.2-5,8.74-13.72,5.65-20.7a12,12,0,0,0-8.37-6.6,112.89,112.89,0,0,0-12.83-2.12c-4.39-.61-8.61-.34-12.49,2a17.07,17.07,0,0,0-7.25,8.78c-.66,1.82,2.23,2.6,2.89.8a13.93,13.93,0,0,1,14-8.87c3.81.22,7.64,1.05,11.41,1.65,3.12.5,6.6,1.09,8.72,3.68,4.26,5.21,1.3,12.75-2.25,17.44-1.89,2.51-4.44,4.51-7.72,4.35a19.39,19.39,0,0,1-5.39-1.35l-5.6-2c-3.34-1.21-7.43-2.24-9.8-5.1s-2.32-6.74-2.38-10.15c0-1.93-3-1.94-3,0Z" transform="translate(-48.95 -136.9)"/><path d="M96.33,237.94c-.53,5.09-1.14,10.17-1.59,15.26-.35,4.11-.14,8.46,2.53,11.82s6.82,4,10.74,2.78c4.47-1.33,8.63-4,12.73-6.19,1.71-.9.2-3.49-1.51-2.59-3.65,1.92-7.3,4.25-11.19,5.62-3.4,1.2-7,1-9-2.34s-1.46-7.32-1.08-11c.46-4.47.94-8.94,1.4-13.41.21-1.92-2.8-1.9-3,0Z" transform="translate(-48.95 -136.9)"/><path d="M113.14,245.21c-.7,4.38.14,9.19,3.51,12.32a10.14,10.14,0,0,0,11.82,1.63,24.94,24.94,0,0,0,5.15-3.88c1.76-1.59,3.19-3.39,3-5.9-.19-2.3-1.37-4.61-2.4-6.65a38.86,38.86,0,0,0-3.85-6.07,7.82,7.82,0,0,0-2.48-2.51,3.14,3.14,0,0,0-3.44.71c-2.29,1.91-4.43,4-6.64,6.06-1.42,1.31.7,3.43,2.13,2.13l4.35-4a10.7,10.7,0,0,1,2.14-2c.37-.17.19-.23.55.11a12.31,12.31,0,0,1,1,1.26,33.72,33.72,0,0,1,5.2,9.41,4.66,4.66,0,0,1,.34,2.77,4.6,4.6,0,0,1-1.36,1.87,27.83,27.83,0,0,1-3.93,3.27c-2.76,1.83-5.84,2.23-8.66.27-3.18-2.21-4.14-6.41-3.56-10.06.3-1.89-2.59-2.7-2.89-.8Z" transform="translate(-48.95 -136.9)"/><path d="M156.3,245.28c-.83-2.16-1.6-4.35-2.51-6.46a4.47,4.47,0,0,0-4.29-2.9c-3.47,0-6.14,2.89-7.21,6-2.2,6.29,1.52,16.74,9.65,14.54,4.67-1.26,6.91-5.7,8.67-9.81l-2.75-1.15c-.89,5.11-1.56,10.26-2,15.43s-.41,10.27-.49,15.43c0,1.87-.35,3.83-2.13,4.81a6.54,6.54,0,0,1-4.54.46c-4-.91-6.52-4.7-8.93-7.73-1.49-1.86-3.38-3.52-4.63-5.56-.91-1.49-1.46-4,.37-5.09a1.5,1.5,0,0,0-1.51-2.59,5.72,5.72,0,0,0-2.7,5.27c.1,2.5,1.52,4.55,3.12,6.37s3.36,3.93,5,6a20.7,20.7,0,0,0,5.47,5.09c3.34,1.94,8.27,2.22,11.22-.59,1.76-1.67,2.21-4.06,2.26-6.39,0-3,0-6.05.11-9.08a158.66,158.66,0,0,1,2.25-21c.26-1.53-2-2.85-2.74-1.16-1.43,3.33-3.13,7.54-7.05,8.48-3.74.89-5.71-2.81-6.21-6-.42-2.69.12-6,2.39-7.76,1-.78,2.85-1.55,3.71-.23a14.87,14.87,0,0,1,1.18,2.92l1.37,3.53c.69,1.79,3.59,1,2.89-.79Z" transform="translate(-48.95 -136.9)"/><path d="M163.44,243.75c1.55,2.17,1.72,4.87,2.37,7.38a10.17,10.17,0,0,0,4,6.14,14.14,14.14,0,0,0,7.19,2,23.8,23.8,0,0,0,7.81-.48,7.69,7.69,0,0,0,5.16-5.36,44.53,44.53,0,0,0,1.62-9.1c.56-5.58-.4-12.15-5.2-15.75-2.76-2.07-5.9-1.86-8.69,0-3.19,2.15-6.23,4.55-9.32,6.82-1.54,1.13-.05,3.74,1.51,2.59l7.13-5.23c1.81-1.32,4-3.44,6.38-2.48,4.56,1.82,5.52,8.11,5.32,12.34a53.69,53.69,0,0,1-1.18,8.19c-.46,2.19-1.17,4.38-3.53,5.08a20.64,20.64,0,0,1-6.47.4,12.26,12.26,0,0,1-5.8-1.36c-2.14-1.28-2.81-3.57-3.31-5.87s-.93-4.82-2.38-6.85c-1.11-1.56-3.71-.06-2.59,1.52Z" transform="translate(-48.95 -136.9)"/><path d="M180.17,288a6.4,6.4,0,0,0,12,3.08l-2.79-.76a34.12,34.12,0,0,1-.7,11.22c-.16.68-.38,1.31-.59,2l-.15.16c.33-.23.57-.23.74,0s.06.06,0-.05a1.74,1.74,0,0,1-.11-.18l-.71-1.23-2.9-5.1a1.5,1.5,0,0,0-2.59,1.51c1.21,2.13,2.34,4.36,3.66,6.42s3.82,1.81,4.86-.37a22.26,22.26,0,0,0,1.49-6.95,35.5,35.5,0,0,0,0-7.36,1.52,1.52,0,0,0-2.8-.75,3.4,3.4,0,0,1-6.4-1.57c-.06-1.93-3.06-1.93-3,0Z" transform="translate(-48.95 -136.9)"/><path d="M193.05,293.58c1.36-.94,3.12-.92,4.71-1.34a6.32,6.32,0,0,0,4-2.8,3.84,3.84,0,0,0-.55-4.47,5.08,5.08,0,0,0-3.85-1.46c-3.57.17-5.31,3.62-5.78,6.77-.26,1.74-.49,3.62.32,5.26s3,2.38,4.79,2.84c2.11.55,4.55.69,6.45-.57a5.11,5.11,0,0,0,2.42-5.25,1.51,1.51,0,0,0-1.84-1.05,1.53,1.53,0,0,0-1.05,1.84c0-.21,0,.58,0,.34a1.49,1.49,0,0,1-.22.62,2.79,2.79,0,0,1-.91,1,3.16,3.16,0,0,1-1.44.5,6.63,6.63,0,0,1-2.08-.15,18.63,18.63,0,0,1-2.21-.64,2.69,2.69,0,0,1-1.17-.66,2.26,2.26,0,0,1-.31-1.34,11.76,11.76,0,0,1,.13-1.87,9.54,9.54,0,0,1,.9-3.08,3.36,3.36,0,0,1,.92-1.12l.2-.13s.37-.2.17-.1.19-.07.19-.07l.38-.09c-.34.08.06,0,.13,0h.33a1.84,1.84,0,0,1,.33,0c-.32,0,0,0,0,0l.32.09s.38.15.18.06.16.09.16.09l.21.13c-.12-.1-.15-.11-.06,0l.21.2c.27.24-.08-.16,0,0l.15.25c-.16-.31,0,0,0,0s0-.37,0,0c0,0,0,.43,0,.24s-.09.28-.08.25c.08-.21-.13.2-.16.26a3.24,3.24,0,0,1-1.13.83,4,4,0,0,1-.73.28c-.35.1-.71.18-1.07.25a11.53,11.53,0,0,0-4.52,1.44,1.54,1.54,0,0,0-.54,2.06,1.51,1.51,0,0,0,2.06.53Z" transform="translate(-48.95 -136.9)"/><path d="M203,289.84l8.26-6a1.5,1.5,0,0,0-1.52-2.59l-8.25,6a1.54,1.54,0,0,0-.54,2.05,1.51,1.51,0,0,0,2.05.54Z" transform="translate(-48.95 -136.9)"/><path d="M202,273.37c-.74,2.32-.18,4.9.18,7.24a18.4,18.4,0,0,0,2.15,6.67c2.16,3.6,6.68,5.86,10.68,4a1.51,1.51,0,0,0,.54-2.05,1.53,1.53,0,0,0-2.05-.54c-2.81,1.34-5.78-1.23-7-3.58a17.6,17.6,0,0,1-1.46-5.25c-.28-1.81-.74-3.85-.18-5.64s-2.31-2.63-2.89-.8Z" transform="translate(-48.95 -136.9)"/></svg>